<svg xmlns="http://www.w3.org/2000/svg" width="1200" height="900" viewBox="0 0 1200 900">
<defs><radialGradient id="g1" cx="50.0%" cy="50.0%" r="45%"><stop offset="0" stop-color="#F15152" stop-opacity=".75"/><stop offset="1" stop-color="#F15152" stop-opacity="0"/></radialGradient>
<radialGradient id="g2" cx="50.0%" cy="50.0%" r="50%"><stop offset="0" stop-color="#FF9A5C" stop-opacity=".55"/><stop offset="1" stop-color="#FF9A5C" stop-opacity="0"/></radialGradient>
<filter id="blur"><feGaussianBlur stdDeviation="6"/></filter></defs>
<rect width="1200" height="900" fill="#0b0b11"/><line x1="0" y1="0" x2="0" y2="900" stroke="#fff" stroke-opacity=".035"/><line x1="60" y1="0" x2="60" y2="900" stroke="#fff" stroke-opacity=".035"/><line x1="120" y1="0" x2="120" y2="900" stroke="#fff" stroke-opacity=".035"/><line x1="180" y1="0" x2="180" y2="900" stroke="#fff" stroke-opacity=".035"/><line x1="240" y1="0" x2="240" y2="900" stroke="#fff" stroke-opacity=".035"/><line x1="300" y1="0" x2="300" y2="900" stroke="#fff" stroke-opacity=".035"/><line x1="360" y1="0" x2="360" y2="900" stroke="#fff" stroke-opacity=".035"/><line x1="420" y1="0" x2="420" y2="900" stroke="#fff" stroke-opacity=".035"/><line x1="480" y1="0" x2="480" y2="900" stroke="#fff" stroke-opacity=".035"/><line x1="540" y1="0" x2="540" y2="900" stroke="#fff" stroke-opacity=".035"/><line x1="600" y1="0" x2="600" y2="900" stroke="#fff" stroke-opacity=".035"/><line x1="660" y1="0" x2="660" y2="900" stroke="#fff" stroke-opacity=".035"/><line x1="720" y1="0" x2="720" y2="900" stroke="#fff" stroke-opacity=".035"/><line x1="780" y1="0" x2="780" y2="900" stroke="#fff" stroke-opacity=".035"/><line x1="840" y1="0" x2="840" y2="900" stroke="#fff" stroke-opacity=".035"/><line x1="900" y1="0" x2="900" y2="900" stroke="#fff" stroke-opacity=".035"/><line x1="960" y1="0" x2="960" y2="900" stroke="#fff" stroke-opacity=".035"/><line x1="1020" y1="0" x2="1020" y2="900" stroke="#fff" stroke-opacity=".035"/><line x1="1080" y1="0" x2="1080" y2="900" stroke="#fff" stroke-opacity=".035"/><line x1="1140" y1="0" x2="1140" y2="900" stroke="#fff" stroke-opacity=".035"/><line x1="0" y1="0" x2="1200" y2="0" stroke="#fff" stroke-opacity=".035"/><line x1="0" y1="60" x2="1200" y2="60" stroke="#fff" stroke-opacity=".035"/><line x1="0" y1="120" x2="1200" y2="120" stroke="#fff" stroke-opacity=".035"/><line x1="0" y1="180" x2="1200" y2="180" stroke="#fff" stroke-opacity=".035"/><line x1="0" y1="240" x2="1200" y2="240" stroke="#fff" stroke-opacity=".035"/><line x1="0" y1="300" x2="1200" y2="300" stroke="#fff" stroke-opacity=".035"/><line x1="0" y1="360" x2="1200" y2="360" stroke="#fff" stroke-opacity=".035"/><line x1="0" y1="420" x2="1200" y2="420" stroke="#fff" stroke-opacity=".035"/><line x1="0" y1="480" x2="1200" y2="480" stroke="#fff" stroke-opacity=".035"/><line x1="0" y1="540" x2="1200" y2="540" stroke="#fff" stroke-opacity=".035"/><line x1="0" y1="600" x2="1200" y2="600" stroke="#fff" stroke-opacity=".035"/><line x1="0" y1="660" x2="1200" y2="660" stroke="#fff" stroke-opacity=".035"/><line x1="0" y1="720" x2="1200" y2="720" stroke="#fff" stroke-opacity=".035"/><line x1="0" y1="780" x2="1200" y2="780" stroke="#fff" stroke-opacity=".035"/><line x1="0" y1="840" x2="1200" y2="840" stroke="#fff" stroke-opacity=".035"/><rect width="1200" height="900" fill="url(#g2)"/><rect width="1200" height="900" fill="url(#g1)"/>
<polygon points="600.0,280.0 747.2,365.0 747.2,535.0 600.0,620.0 452.8,535.0 452.8,365.0" fill="none" stroke="#F15152" stroke-width="10" filter="url(#blur)" opacity=".9"/><polygon points="600.0,280.0 747.2,365.0 747.2,535.0 600.0,620.0 452.8,535.0 452.8,365.0" fill="none" stroke="#F15152" stroke-opacity="0.9" stroke-width="3"/><polygon points="636.2,192.5 841.1,352.6 804.9,610.1 563.8,707.5 358.9,547.4 395.1,289.9" fill="none" stroke="#ffffff" stroke-opacity="0.11" stroke-width="1.2"/><polygon points="699.2,103.9 949.3,362.9 850.1,709.0 500.8,796.1 250.7,537.1 349.9,191.0" fill="none" stroke="#ffffff" stroke-opacity="0.14" stroke-width="1.2"/><polygon points="791.2,20.6 1067.4,400.9 876.3,830.2 408.8,879.4 132.6,499.1 323.7,69.8" fill="none" stroke="#ffffff" stroke-opacity="0.16999999999999998" stroke-width="1.2"/><polygon points="918.0,-58.8 1199.6,470.9 881.7,979.8 282.0,958.8 0.4,429.1 318.3,-79.8" fill="none" stroke="#ffffff" stroke-opacity="0.2" stroke-width="1.2"/>
<polygon points="630.0,398.0 660.0,450.0 630.0,502.0 570.0,502.0 540.0,450.0 570.0,398.0" fill="#F15152" fill-opacity=".9"/></svg>